PathFileType	4	(X/Y/Z)	HSS_walk4.trc
DataRate	CameraRate	NumFrames	NumMarkers	Units	OrigDataRate	OrigDataStartFrame	OrigNumFrames
120.0	120.0	4	44	mm	120.0	145	1155
Frame#	Time		R.Shoulder		Offset		L.Shoulder		R.Elbow		R.Wrist.Radial		R.Wrist		R.Hand		L.Elbow		L.Wrist.Radial		L.Wrist		L.Hand		R.Hip		V.Sacral		L.PSIS		L.Hip		R.Thigh.Upper		R.Thigh.Front		R.Thigh.Rear		X.Shell.Lower.Thigh.Right		R.Knee.Lateral		R.Shank.Upper		R.Shank.Front		R.Shank.Rear		X.Shell.Lower.Shank.Right		R.Ankle.Lateral		R.Heel		R.Toe		L.Thigh.Upper		L.Thigh.Front		L.Thigh.Rear		X.Shell.Lower.Thigh.Left		L.Knee.Lateral		L.Shank.Upper		L.Shank.Front		L.Shank.Rear		X.Shell.Lower.Shank.Left		L.Ankle.Lateral		L.Heel		L.Toe		R.Troc		L.Troc		R.PSIS		L.ASIS		R.ASIS
			X1	Y1	Z1	X2	Y2	Z2	X3	Y3	Z3	X4	Y4	Z4	X5	Y5	Z5	X6	Y6	Z6	X7	Y7	Z7	X8	Y8	Z8	X9	Y9	Z9	X10	Y10	Z10	X11	Y11	Z11	X12	Y12	Z12	X13	Y13	Z13	X14	Y14	Z14	X15	Y15	Z15	X16	Y16	Z16	X17	Y17	Z17	X18	Y18	Z18	X19	Y19	Z19	X20	Y20	Z20	X21	Y21	Z21	X22	Y22	Z22	X23	Y23	Z23	X24	Y24	Z24	X25	Y25	Z25	X26	Y26	Z26	X27	Y27	Z27	X28	Y28	Z28	X29	Y29	Z29	X30	Y30	Z30	X31	Y31	Z31	X32	Y32	Z32	X33	Y33	Z33	X34	Y34	Z34	X35	Y35	Z35	X36	Y36	Z36	X37	Y37	Z37	X38	Y38	Z38	X39	Y39	Z39	X40	Y40	Z40	X41	Y41	Z41	X42	Y42	Z42	X43	Y43	Z43	X44	Y44	Z44

145	1.20000	-1863.81677	1475.61548	-22.90117	-1980.10059	1385.71204	-316.62292	-1855.79443	1487.65649	-399.06149	-1877.70740	1107.96960	19.79843	-1759.92834	888.82568	61.86948	-1729.94739	898.74988	-4.41649	-1708.05762	818.64105	51.54351	-1866.42151	1121.85669	-448.59238	-1744.65955	912.98358	-469.31970	-1728.22754	910.79785	-398.69104	-1697.94446	842.23364	-447.02368	-1820.85876	1038.01062	-59.63500	-1936.12207	1018.80872	-211.02847	-1933.28638	1024.45276	-251.61334	-1813.86780	1037.42822	-356.60388	-1773.96716	695.04651	-25.94659	-1740.50635	658.45502	-42.53279	-1796.89172	656.35706	-17.49638	-1769.12903	624.07892	-36.46668	-1832.22546	515.77698	-52.02753	-1853.61340	366.84598	-5.88009	-1828.78699	321.78781	-30.73705	-1887.48230	332.50720	-18.10353	-1867.06287	291.08359	-28.02206	-1892.17041	70.20637	-78.03740	-1934.66296	32.77555	-127.96498	-1739.13904	31.98401	-70.98466	-1757.28638	694.53857	-374.33600	-1738.84924	645.80627	-349.11511	-1786.56226	658.36871	-388.56909	-1761.86096	623.69543	-373.84503	-1831.01501	507.54413	-353.83798	-1869.83801	305.59061	-392.14835	-1841.76379	281.82336	-371.48724	-1901.37524	267.75507	-378.10538	-1879.57043	236.42424	-378.46048	-1872.94238	72.17238	-330.11276	-1928.84265	34.42192	-283.57733	-1729.51575	32.57794	-319.86880	-1804.36096	881.06024	-22.99163	-1801.87878	893.69366	-391.62155	-1937.53821	1023.52069	-166.12555	-1747.62634	1003.52502	-315.18875	-1758.40271	1003.02972	-89.14141
146	1.20833	-1863.70813	1475.64233	-22.89499	-1979.96326	1385.70142	-316.60962	-1855.73035	1487.59937	-399.06049	-1877.59656	1108.00708	19.88138	-1759.78516	888.85156	61.96804	-1727.87219	899.25964	-4.08534	-1707.90137	818.68207	51.62467	-1866.16992	1121.85022	-448.58920	-1744.42200	912.97321	-469.21671	-1727.16467	911.35370	-398.50528	-1697.71228	842.25116	-446.93240	-1820.76343	1038.02966	-59.57373	-1936.05017	1018.81268	-210.99767	-1933.20764	1024.49915	-251.57872	-1813.80786	1037.42261	-356.57639	-1773.90649	695.04150	-25.93325	-1740.46619	658.44019	-42.48150	-1796.83716	656.33844	-17.48787	-1769.09644	624.07361	-36.40044	-1832.22021	515.82275	-51.84158	-1853.57483	366.84845	-5.83009	-1828.78735	321.81985	-30.62247	-1887.44385	332.49374	-18.06034	-1867.04834	291.07471	-28.01205	-1892.17249	70.21401	-77.97311	-1934.68237	32.76900	-127.96368	-1739.14587	32.00107	-70.96638	-1757.25134	694.51996	-374.33029	-1738.79370	645.75446	-349.09454	-1786.54114	658.36713	-388.55490	-1761.81689	623.69873	-373.83481	-1830.98047	507.51245	-353.79633	-1869.81860	305.60608	-392.13086	-1841.74561	281.82465	-371.48645	-1901.37292	267.75034	-378.10751	-1879.56372	236.45483	-378.46701	-1872.94702	72.21375	-330.16333	-1928.85193	34.42995	-283.56854	-1729.51685	32.61884	-319.95227	-1804.30286	881.04199	-22.97228	-1801.81226	893.70941	-391.60419	-1937.41052	1023.55054	-166.10513	-1747.52979	1003.52429	-315.14600	-1758.21436	1003.08026	-89.06238
147	1.21667	-1863.58533	1475.66650	-22.84716	-1979.81482	1385.68823	-316.60782	-1855.47412	1487.63379	-399.08127	-1877.50415	1108.03406	19.94680	-1759.62866	888.90179	62.05836	-1727.77625	899.25256	-3.98818	-1707.80469	818.72131	51.77823	-1865.94092	1121.83069	-448.55875	-1744.19861	912.96692	-469.03589	-1727.59778	911.01733	-398.41318	-1697.46106	842.27417	-446.84439	-1820.47302	1038.05908	-59.59240	-1935.94055	1018.84821	-210.98604	-1933.13452	1024.54028	-251.57524	-1813.60364	1037.46472	-356.54355	-1773.86719	694.99255	-25.86955	-1740.42566	658.41492	-42.46029	-1796.82227	656.32635	-17.43001	-1769.03699	624.04376	-36.40360	-1832.16650	515.78735	-51.87498	-1853.52856	366.81122	-5.84499	-1828.72510	321.80447	-30.68598	-1887.41101	332.48120	-18.01317	-1867.04382	291.08072	-27.93591	-1892.18555	70.21657	-78.02505	-1934.68494	32.77119	-127.92803	-1739.12451	31.99462	-70.96649	-1757.20520	694.52075	-374.33139	-1738.76233	645.74548	-349.05307	-1786.45154	658.35675	-388.55518	-1761.76428	623.69678	-373.83295	-1830.93262	507.52567	-353.80276	-1869.76538	305.59525	-392.11292	-1841.71741	281.82932	-371.47473	-1901.35730	267.76517	-378.10349	-1879.57495	236.48288	-378.49518	-1872.95691	72.20453	-330.16833	-1928.83264	34.43376	-283.60651	-1729.53296	32.61362	-319.93716	-1804.26672	881.04584	-22.92699	-1801.73730	893.70837	-391.55911	-1937.27686	1023.58862	-166.06628	-1747.45154	1003.52136	-315.16153	-1758.27148	1003.08301	-89.09602
148	1.22500	-1863.46936	1475.71179	-22.80636	-1979.66455	1385.70532	-316.58649	-1855.03345	1487.63086	-398.96613	-1877.39734	1108.08777	20.01303	-1759.51782	888.93829	62.17311	-1727.66638	899.35211	-3.94473	-1707.68115	818.80518	51.84204	-1865.72534	1121.81775	-448.50446	-1743.92053	912.96136	-468.94659	-1726.57080	911.41840	-398.15787	-1697.14844	842.29291	-446.73828	-1820.67114	1038.01111	-59.54147	-1935.87354	1018.86432	-210.95633	-1933.01062	1024.59314	-251.52901	-1813.52148	1037.45142	-356.48495	-1773.78638	695.00092	-25.87587	-1740.38330	658.41443	-42.46042	-1796.77661	656.30725	-17.43254	-1769.01453	624.03906	-36.37034	-1832.16101	515.76898	-51.82714	-1853.51648	366.85837	-5.81648	-1828.69946	321.82480	-30.54616	-1887.37024	332.46683	-17.99009	-1867.02100	291.09045	-27.91109	-1892.16797	70.16039	-78.05034	-1934.68665	32.76865	-127.92763	-1739.12073	31.99561	-70.96918	-1757.18555	694.49316	-374.27203	-1738.69031	645.76801	-349.03687	-1786.40833	658.39154	-388.55850	-1761.71448	623.69232	-373.85342	-1830.92371	507.53268	-353.80536	-1869.74121	305.58630	-392.11588	-1841.71741	281.86703	-371.46759	-1901.33923	267.74826	-378.11124	-1879.53076	236.47375	-378.44266	-1872.93762	72.20487	-330.15851	-1928.82996	34.41672	-283.61163	-1729.51233	32.58930	-319.92343	-1804.22925	881.05023	-22.89045	-1801.67053	893.70038	-391.55286	-1937.16919	1023.62408	-166.05792	-1747.38098	1003.47882	-315.11502	-1758.29761	1003.00952	-88.94160
